<svg xmlns:xlink="http://www.w3.org/1999/xlink" xmlns="http://www.w3.org/2000/svg"  style="fill-rule:nonzero;clip-rule:evenodd;stroke-linecap:round;stroke-linejoin:round;" xml:space="preserve" version="1.1" viewBox="60.58 192.52 295.83 38.09">
<defs/>
<g id="Layer 2">
<g opacity="1">
<g opacity="1">
<path d="M76.0384+202.989L83.094+202.989L87.1468+222.154L91.2971+202.989L98.5481+202.989L90.8333+229.601L83.68+229.601L79.5052+210.216L75.2815+229.601L68.055+229.601L60.5843+202.989L68.055+202.989L72.2053+222.081L76.0384+202.989Z" opacity="1" fill="#333333"/>
<path d="M99.6468+208.189L99.6468+203.233L103.358+203.233L103.358+195.812L110.242+195.812L110.242+203.233L114.564+203.233L114.564+208.189L110.242+208.189L110.242+222.252C110.242+223.342+110.381+224.022+110.657+224.291C110.934+224.559+111.781+224.693+113.197+224.693C113.408+224.693+113.632+224.689+113.868+224.681C114.104+224.673+114.336+224.661+114.564+224.645L114.564+229.845L111.268+229.967C107.98+230.081+105.734+229.511+104.53+228.258C103.748+227.46+103.358+226.231+103.358+224.571L103.358+208.189L99.6468+208.189Z" opacity="1" fill="#333333"/>
<path d="M135.511+224.23C138.49+224.23+140.854+223.131+142.603+220.934C144.353+218.736+145.228+215.611+145.228+211.559C145.228+207.522+144.353+204.401+142.603+202.196C140.854+199.99+138.49+198.888+135.511+198.888C132.532+198.888+130.156+199.986+128.382+202.184C126.608+204.381+125.721+207.506+125.721+211.559C125.721+215.611+126.608+218.736+128.382+220.934C130.156+223.131+132.532+224.23+135.511+224.23ZM152.747+211.559C152.747+218.02+150.933+222.968+147.303+226.402C144.585+229.202+140.654+230.602+135.511+230.602C130.368+230.602+126.437+229.202+123.719+226.402C120.073+222.968+118.25+218.02+118.25+211.559C118.25+204.967+120.073+200.019+123.719+196.715C126.437+193.915+130.368+192.516+135.511+192.516C140.654+192.516+144.585+193.915+147.303+196.715C150.933+200.019+152.747+204.967+152.747+211.559Z" opacity="1" fill="#333333"/>
<path d="M163.929+218.492C164.157+220.136+164.604+221.365+165.272+222.179C166.492+223.66+168.584+224.4+171.546+224.4C173.32+224.4+174.761+224.205+175.867+223.814C177.967+223.066+179.017+221.674+179.017+219.64C179.017+218.452+178.496+217.532+177.454+216.881C176.413+216.246+174.777+215.685+172.547+215.196L168.739+214.342C164.995+213.495+162.407+212.576+160.975+211.583C158.55+209.923+157.337+207.327+157.337+203.795C157.337+200.572+158.509+197.895+160.853+195.763C163.197+193.631+166.639+192.564+171.18+192.564C174.972+192.564+178.207+193.57+180.885+195.58C183.562+197.59+184.966+200.507+185.096+204.332L177.869+204.332C177.739+202.167+176.795+200.629+175.037+199.718C173.866+199.116+172.409+198.814+170.667+198.814C168.73+198.814+167.184+199.205+166.029+199.986C164.873+200.768+164.295+201.858+164.295+203.258C164.295+204.544+164.865+205.504+166.004+206.139C166.737+206.562+168.299+207.058+170.692+207.628L176.893+209.117C179.611+209.768+181.662+210.639+183.045+211.73C185.194+213.422+186.268+215.872+186.268+219.078C186.268+222.366+185.011+225.096+182.496+227.269C179.981+229.442+176.429+230.528+171.839+230.528C167.152+230.528+163.465+229.458+160.78+227.318C158.094+225.178+156.751+222.236+156.751+218.492L163.929+218.492Z" opacity="1" fill="#333333"/>
</g>
<g opacity="1">
<path d="M194.847+201.396C194.847+199.385+195.387+197.836+196.465+196.747C197.402+195.799+198.595+195.325+200.043+195.325C201.98+195.325+203.397+195.961+204.293+197.232C204.788+197.945+205.053+198.661+205.09+199.38L202.683+199.38C202.527+198.828+202.327+198.411+202.082+198.13C201.644+197.63+200.996+197.38+200.137+197.38C199.262+197.38+198.571+197.733+198.066+198.439C197.561+199.144+197.308+200.143+197.308+201.435C197.308+202.727+197.575+203.694+198.109+204.337C198.643+204.98+199.321+205.302+200.144+205.302C200.988+205.302+201.631+205.026+202.074+204.474C202.319+204.177+202.522+203.732+202.683+203.138L205.066+203.138C204.858+204.393+204.325+205.414+203.469+206.2C202.612+206.987+201.514+207.38+200.176+207.38C198.519+207.38+197.217+206.849+196.269+205.786C195.321+204.719+194.847+203.255+194.847+201.396Z" opacity="1" fill="#555555"/>
<path d="M210.543+205.49C211.194+205.49+211.694+205.258+212.043+204.794C212.392+204.331+212.566+203.672+212.566+202.818C212.566+201.963+212.392+201.306+212.043+200.845C211.694+200.384+211.194+200.154+210.543+200.154C209.892+200.154+209.39+200.384+209.039+200.845C208.687+201.306+208.512+201.963+208.512+202.818C208.512+203.672+208.687+204.331+209.039+204.794C209.39+205.258+209.892+205.49+210.543+205.49ZM214.902+202.818C214.902+204.068+214.543+205.137+213.824+206.025C213.105+206.913+212.014+207.357+210.551+207.357C209.087+207.357+207.996+206.913+207.277+206.025C206.558+205.137+206.199+204.068+206.199+202.818C206.199+201.588+206.558+200.523+207.277+199.622C207.996+198.721+209.087+198.271+210.551+198.271C212.014+198.271+213.105+198.721+213.824+199.622C214.543+200.523+214.902+201.588+214.902+202.818Z" opacity="1" fill="#555555"/>
<path d="M221.215+198.341C222.095+198.341+222.815+198.572+223.375+199.032C223.935+199.493+224.215+200.258+224.215+201.325L224.215+207.06L221.933+207.06L221.933+201.88C221.933+201.432+221.874+201.088+221.754+200.849C221.535+200.411+221.118+200.193+220.504+200.193C219.749+200.193+219.23+200.513+218.949+201.154C218.803+201.492+218.73+201.924+218.73+202.45L218.73+207.06L216.512+207.06L216.512+198.56L218.66+198.56L218.66+199.802C218.946+199.365+219.217+199.049+219.472+198.857C219.931+198.513+220.512+198.341+221.215+198.341Z" opacity="1" fill="#555555"/>
<path d="M225.394+200.208L225.394+198.622L226.582+198.622L226.582+196.247L228.785+196.247L228.785+198.622L230.168+198.622L230.168+200.208L228.785+200.208L228.785+204.708C228.785+205.057+228.829+205.275+228.918+205.361C229.006+205.447+229.277+205.49+229.73+205.49C229.798+205.49+229.87+205.488+229.945+205.486C230.021+205.483+230.095+205.479+230.168+205.474L230.168+207.138L229.113+207.177C228.061+207.213+227.342+207.031+226.957+206.63C226.707+206.375+226.582+205.982+226.582+205.45L226.582+200.208L225.394+200.208Z" opacity="1" fill="#555555"/>
<path d="M234.957+200.154C234.441+200.154+234.041+200.315+233.758+200.638C233.474+200.961+233.295+201.398+233.222+201.95L236.683+201.95C236.647+201.362+236.469+200.915+236.148+200.611C235.828+200.306+235.431+200.154+234.957+200.154ZM234.957+198.318C235.665+198.318+236.303+198.45+236.871+198.716C237.439+198.982+237.907+199.401+238.277+199.974C238.61+200.479+238.827+201.065+238.926+201.732C238.983+202.122+239.006+202.685+238.996+203.419L233.168+203.419C233.199+204.273+233.467+204.872+233.972+205.216C234.28+205.43+234.65+205.536+235.082+205.536C235.54+205.536+235.913+205.406+236.199+205.146C236.355+205.005+236.493+204.81+236.613+204.56L238.887+204.56C238.829+205.065+238.566+205.578+238.097+206.099C237.368+206.927+236.347+207.341+235.035+207.341C233.952+207.341+232.996+206.992+232.168+206.294C231.34+205.596+230.926+204.461+230.926+202.888C230.926+201.414+231.299+200.284+232.047+199.497C232.794+198.711+233.764+198.318+234.957+198.318Z" opacity="1" fill="#555555"/>
<path d="M245.215+198.341C246.095+198.341+246.815+198.572+247.375+199.032C247.935+199.493+248.215+200.258+248.215+201.325L248.215+207.06L245.933+207.06L245.933+201.88C245.933+201.432+245.874+201.088+245.754+200.849C245.535+200.411+245.118+200.193+244.504+200.193C243.749+200.193+243.23+200.513+242.949+201.154C242.803+201.492+242.73+201.924+242.73+202.45L242.73+207.06L240.512+207.06L240.512+198.56L242.66+198.56L242.66+199.802C242.946+199.365+243.217+199.049+243.472+198.857C243.931+198.513+244.512+198.341+245.215+198.341Z" opacity="1" fill="#555555"/>
<path d="M249.394+200.208L249.394+198.622L250.582+198.622L250.582+196.247L252.785+196.247L252.785+198.622L254.168+198.622L254.168+200.208L252.785+200.208L252.785+204.708C252.785+205.057+252.829+205.275+252.918+205.361C253.006+205.447+253.277+205.49+253.73+205.49C253.798+205.49+253.87+205.488+253.945+205.486C254.021+205.483+254.095+205.479+254.168+205.474L254.168+207.138L253.113+207.177C252.061+207.213+251.342+207.031+250.957+206.63C250.707+206.375+250.582+205.982+250.582+205.45L250.582+200.208L249.394+200.208Z" opacity="1" fill="#555555"/>
<path d="M267.855+195.544L271.316+195.544L271.316+207.06L269.074+207.06L269.074+199.271C269.074+199.047+269.077+198.733+269.082+198.329C269.087+197.926+269.09+197.615+269.09+197.396L266.91+207.06L264.574+207.06L262.41+197.396C262.41+197.615+262.413+197.926+262.418+198.329C262.423+198.733+262.426+199.047+262.426+199.271L262.426+207.06L260.183+207.06L260.183+195.544L263.683+195.544L265.777+204.599L267.855+195.544Z" opacity="1" fill="#555555"/>
<path d="M278.066+202.919C277.926+203.008+277.784+203.079+277.64+203.134C277.497+203.189+277.301+203.24+277.051+203.286L276.551+203.38C276.082+203.463+275.746+203.565+275.543+203.685C275.199+203.888+275.027+204.203+275.027+204.63C275.027+205.01+275.133+205.285+275.344+205.454C275.554+205.624+275.811+205.708+276.113+205.708C276.592+205.708+277.034+205.568+277.437+205.286C277.841+205.005+278.051+204.492+278.066+203.747L278.066+202.919ZM276.715+201.88C277.126+201.828+277.42+201.763+277.597+201.685C277.915+201.549+278.074+201.338+278.074+201.052C278.074+200.703+277.953+200.462+277.711+200.329C277.469+200.197+277.113+200.13+276.644+200.13C276.118+200.13+275.746+200.26+275.527+200.521C275.371+200.713+275.267+200.974+275.215+201.302L273.066+201.302C273.113+200.557+273.321+199.945+273.691+199.466C274.28+198.716+275.29+198.341+276.722+198.341C277.655+198.341+278.483+198.526+279.207+198.896C279.931+199.266+280.293+199.963+280.293+200.99L280.293+204.896C280.293+205.167+280.298+205.495+280.308+205.88C280.324+206.172+280.368+206.37+280.441+206.474C280.514+206.578+280.624+206.664+280.769+206.732L280.769+207.06L278.347+207.06C278.28+206.888+278.233+206.727+278.207+206.575C278.181+206.424+278.16+206.253+278.144+206.06C277.837+206.393+277.483+206.677+277.082+206.911C276.603+207.187+276.061+207.325+275.457+207.325C274.686+207.325+274.049+207.105+273.547+206.665C273.044+206.225+272.793+205.602+272.793+204.794C272.793+203.747+273.196+202.99+274.004+202.521C274.446+202.266+275.097+202.083+275.957+201.974L276.715+201.88Z" opacity="1" fill="#555555"/>
<path d="M286.988+198.341C287.868+198.341+288.588+198.572+289.148+199.032C289.708+199.493+289.988+200.258+289.988+201.325L289.988+207.06L287.707+207.06L287.707+201.88C287.707+201.432+287.647+201.088+287.527+200.849C287.308+200.411+286.892+200.193+286.277+200.193C285.522+200.193+285.004+200.513+284.722+201.154C284.577+201.492+284.504+201.924+284.504+202.45L284.504+207.06L282.285+207.06L282.285+198.56L284.433+198.56L284.433+199.802C284.72+199.365+284.991+199.049+285.246+198.857C285.704+198.513+286.285+198.341+286.988+198.341Z" opacity="1" fill="#555555"/>
<path d="M296.738+202.919C296.597+203.008+296.456+203.079+296.312+203.134C296.169+203.189+295.972+203.24+295.722+203.286L295.222+203.38C294.754+203.463+294.418+203.565+294.215+203.685C293.871+203.888+293.699+204.203+293.699+204.63C293.699+205.01+293.804+205.285+294.015+205.454C294.226+205.624+294.483+205.708+294.785+205.708C295.264+205.708+295.706+205.568+296.109+205.286C296.513+205.005+296.722+204.492+296.738+203.747L296.738+202.919ZM295.387+201.88C295.798+201.828+296.092+201.763+296.269+201.685C296.587+201.549+296.746+201.338+296.746+201.052C296.746+200.703+296.625+200.462+296.383+200.329C296.14+200.197+295.785+200.13+295.316+200.13C294.79+200.13+294.418+200.26+294.199+200.521C294.043+200.713+293.939+200.974+293.887+201.302L291.738+201.302C291.785+200.557+291.993+199.945+292.363+199.466C292.952+198.716+293.962+198.341+295.394+198.341C296.327+198.341+297.155+198.526+297.879+198.896C298.603+199.266+298.965+199.963+298.965+200.99L298.965+204.896C298.965+205.167+298.97+205.495+298.98+205.88C298.996+206.172+299.04+206.37+299.113+206.474C299.186+206.578+299.295+206.664+299.441+206.732L299.441+207.06L297.019+207.06C296.952+206.888+296.905+206.727+296.879+206.575C296.853+206.424+296.832+206.253+296.816+206.06C296.509+206.393+296.155+206.677+295.754+206.911C295.275+207.187+294.733+207.325+294.129+207.325C293.358+207.325+292.721+207.105+292.219+206.665C291.716+206.225+291.465+205.602+291.465+204.794C291.465+203.747+291.868+202.99+292.676+202.521C293.118+202.266+293.769+202.083+294.629+201.974L295.387+201.88Z" opacity="1" fill="#555555"/>
<path d="M304.597+205.232C305.118+205.232+305.558+205.035+305.918+204.642C306.277+204.249+306.457+203.622+306.457+202.763C306.457+201.956+306.286+201.341+305.945+200.919C305.604+200.497+305.147+200.286+304.574+200.286C303.793+200.286+303.254+200.654+302.957+201.388C302.801+201.779+302.722+202.26+302.722+202.833C302.722+203.328+302.806+203.768+302.972+204.154C303.275+204.872+303.816+205.232+304.597+205.232ZM304.043+198.341C304.47+198.341+304.842+198.406+305.16+198.536C305.702+198.76+306.139+199.172+306.472+199.771L306.472+198.544L308.637+198.544L308.637+206.622C308.637+207.721+308.452+208.549+308.082+209.107C307.446+210.065+306.228+210.544+304.426+210.544C303.337+210.544+302.449+210.331+301.762+209.904C301.074+209.477+300.694+208.838+300.621+207.99L303.043+207.99C303.105+208.25+303.207+208.437+303.347+208.552C303.587+208.755+303.991+208.857+304.558+208.857C305.36+208.857+305.897+208.588+306.168+208.052C306.345+207.708+306.433+207.13+306.433+206.318L306.433+205.771C306.22+206.135+305.991+206.409+305.746+206.591C305.303+206.93+304.728+207.099+304.019+207.099C302.926+207.099+302.052+206.715+301.398+205.947C300.745+205.178+300.418+204.138+300.418+202.825C300.418+201.56+300.733+200.496+301.363+199.634C301.993+198.772+302.887+198.341+304.043+198.341Z" opacity="1" fill="#555555"/>
<path d="M314.074+200.154C313.558+200.154+313.159+200.315+312.875+200.638C312.591+200.961+312.413+201.398+312.34+201.95L315.801+201.95C315.764+201.362+315.586+200.915+315.265+200.611C314.945+200.306+314.548+200.154+314.074+200.154ZM314.074+198.318C314.782+198.318+315.42+198.45+315.988+198.716C316.556+198.982+317.025+199.401+317.394+199.974C317.728+200.479+317.944+201.065+318.043+201.732C318.1+202.122+318.124+202.685+318.113+203.419L312.285+203.419C312.316+204.273+312.584+204.872+313.09+205.216C313.397+205.43+313.767+205.536+314.199+205.536C314.657+205.536+315.03+205.406+315.316+205.146C315.472+205.005+315.61+204.81+315.73+204.56L318.004+204.56C317.946+205.065+317.683+205.578+317.215+206.099C316.485+206.927+315.465+207.341+314.152+207.341C313.069+207.341+312.113+206.992+311.285+206.294C310.457+205.596+310.043+204.461+310.043+202.888C310.043+201.414+310.416+200.284+311.164+199.497C311.911+198.711+312.881+198.318+314.074+198.318Z" opacity="1" fill="#555555"/>
<path d="M329.129+198.357C329.504+198.357+329.874+198.43+330.238+198.575C330.603+198.721+330.933+198.977+331.23+199.341C331.47+199.638+331.631+200.003+331.715+200.435C331.767+200.721+331.793+201.141+331.793+201.693L331.777+207.06L329.496+207.06L329.496+201.638C329.496+201.315+329.444+201.049+329.34+200.841C329.142+200.445+328.777+200.247+328.246+200.247C327.631+200.247+327.207+200.503+326.972+201.013C326.853+201.284+326.793+201.609+326.793+201.99L326.793+207.06L324.551+207.06L324.551+201.99C324.551+201.484+324.499+201.117+324.394+200.888C324.207+200.477+323.84+200.271+323.293+200.271C322.657+200.271+322.23+200.477+322.012+200.888C321.892+201.122+321.832+201.471+321.832+201.935L321.832+207.06L319.574+207.06L319.574+198.56L321.738+198.56L321.738+199.802C322.014+199.359+322.275+199.044+322.519+198.857C322.952+198.523+323.512+198.357+324.199+198.357C324.85+198.357+325.376+198.5+325.777+198.786C326.1+199.052+326.345+199.393+326.512+199.81C326.803+199.31+327.165+198.943+327.597+198.708C328.056+198.474+328.566+198.357+329.129+198.357Z" opacity="1" fill="#555555"/>
<path d="M337.199+200.154C336.683+200.154+336.284+200.315+336+200.638C335.716+200.961+335.538+201.398+335.465+201.95L338.926+201.95C338.889+201.362+338.711+200.915+338.39+200.611C338.07+200.306+337.673+200.154+337.199+200.154ZM337.199+198.318C337.907+198.318+338.545+198.45+339.113+198.716C339.681+198.982+340.15+199.401+340.519+199.974C340.853+200.479+341.069+201.065+341.168+201.732C341.225+202.122+341.249+202.685+341.238+203.419L335.41+203.419C335.441+204.273+335.709+204.872+336.215+205.216C336.522+205.43+336.892+205.536+337.324+205.536C337.782+205.536+338.155+205.406+338.441+205.146C338.597+205.005+338.735+204.81+338.855+204.56L341.129+204.56C341.071+205.065+340.808+205.578+340.34+206.099C339.61+206.927+338.59+207.341+337.277+207.341C336.194+207.341+335.238+206.992+334.41+206.294C333.582+205.596+333.168+204.461+333.168+202.888C333.168+201.414+333.541+200.284+334.289+199.497C335.036+198.711+336.006+198.318+337.199+198.318Z" opacity="1" fill="#555555"/>
<path d="M347.457+198.341C348.337+198.341+349.057+198.572+349.617+199.032C350.177+199.493+350.457+200.258+350.457+201.325L350.457+207.06L348.176+207.06L348.176+201.88C348.176+201.432+348.116+201.088+347.996+200.849C347.777+200.411+347.36+200.193+346.746+200.193C345.991+200.193+345.472+200.513+345.191+201.154C345.045+201.492+344.972+201.924+344.972+202.45L344.972+207.06L342.754+207.06L342.754+198.56L344.902+198.56L344.902+199.802C345.189+199.365+345.459+199.049+345.715+198.857C346.173+198.513+346.754+198.341+347.457+198.341Z" opacity="1" fill="#555555"/>
<path d="M351.637+200.208L351.637+198.622L352.824+198.622L352.824+196.247L355.027+196.247L355.027+198.622L356.41+198.622L356.41+200.208L355.027+200.208L355.027+204.708C355.027+205.057+355.071+205.275+355.16+205.361C355.249+205.447+355.519+205.49+355.972+205.49C356.04+205.49+356.112+205.488+356.187+205.486C356.263+205.483+356.337+205.479+356.41+205.474L356.41+207.138L355.355+207.177C354.303+207.213+353.584+207.031+353.199+206.63C352.949+206.375+352.824+205.982+352.824+205.45L352.824+200.208L351.637+200.208Z" opacity="1" fill="#555555"/>
<path d="M197.09+222.505C197.163+223.031+197.306+223.424+197.519+223.685C197.91+224.159+198.579+224.396+199.527+224.396C200.095+224.396+200.556+224.333+200.91+224.208C201.582+223.969+201.918+223.523+201.918+222.872C201.918+222.492+201.751+222.198+201.418+221.99C201.084+221.786+200.561+221.607+199.847+221.45L198.629+221.177C197.431+220.906+196.603+220.612+196.144+220.294C195.368+219.763+194.98+218.932+194.98+217.802C194.98+216.771+195.355+215.914+196.105+215.232C196.855+214.549+197.957+214.208+199.41+214.208C200.624+214.208+201.659+214.53+202.515+215.173C203.372+215.816+203.821+216.75+203.863+217.974L201.551+217.974C201.509+217.281+201.207+216.789+200.644+216.497C200.269+216.305+199.803+216.208+199.246+216.208C198.626+216.208+198.131+216.333+197.762+216.583C197.392+216.833+197.207+217.182+197.207+217.63C197.207+218.042+197.389+218.349+197.754+218.552C197.988+218.687+198.488+218.846+199.254+219.029L201.238+219.505C202.108+219.713+202.764+219.992+203.207+220.341C203.894+220.883+204.238+221.667+204.238+222.693C204.238+223.745+203.836+224.618+203.031+225.314C202.226+226.009+201.09+226.357+199.621+226.357C198.121+226.357+196.941+226.014+196.082+225.329C195.222+224.644+194.793+223.703+194.793+222.505L197.09+222.505Z" opacity="1" fill="#555555"/>
<path d="M206.183+227.693L206.465+227.708C206.683+227.719+206.892+227.711+207.09+227.685C207.288+227.659+207.454+227.599+207.59+227.505C207.72+227.417+207.841+227.232+207.953+226.95C208.065+226.669+208.11+226.497+208.09+226.435L204.965+217.544L207.441+217.544L209.301+223.825L211.058+217.544L213.426+217.544L210.504+225.919C209.941+227.534+209.496+228.535+209.168+228.923C208.84+229.311+208.183+229.505+207.199+229.505C207.001+229.505+206.842+229.504+206.722+229.501C206.603+229.499+206.423+229.49+206.183+229.474L206.183+227.693Z" opacity="1" fill="#555555"/>
<path d="M216.472+223.341C216.519+223.737+216.621+224.018+216.777+224.185C217.053+224.482+217.564+224.63+218.308+224.63C218.746+224.63+219.094+224.565+219.351+224.435C219.609+224.305+219.738+224.109+219.738+223.849C219.738+223.599+219.634+223.409+219.426+223.279C219.217+223.148+218.444+222.924+217.105+222.607C216.142+222.367+215.462+222.068+215.066+221.708C214.67+221.354+214.472+220.844+214.472+220.177C214.472+219.391+214.781+218.715+215.398+218.15C216.015+217.585+216.884+217.302+218.004+217.302C219.066+217.302+219.932+217.514+220.601+217.939C221.271+218.363+221.655+219.096+221.754+220.138L219.527+220.138C219.496+219.852+219.415+219.625+219.285+219.458C219.04+219.156+218.624+219.005+218.035+219.005C217.551+219.005+217.206+219.081+217+219.232C216.794+219.383+216.691+219.56+216.691+219.763C216.691+220.018+216.801+220.203+217.019+220.318C217.238+220.437+218.012+220.643+219.34+220.935C220.225+221.143+220.889+221.458+221.332+221.88C221.769+222.307+221.988+222.841+221.988+223.482C221.988+224.325+221.674+225.014+221.047+225.548C220.419+226.082+219.449+226.349+218.137+226.349C216.798+226.349+215.81+226.066+215.172+225.501C214.534+224.936+214.215+224.216+214.215+223.341L216.472+223.341Z" opacity="1" fill="#555555"/>
<path d="M222.762+219.208L222.762+217.622L223.949+217.622L223.949+215.247L226.152+215.247L226.152+217.622L227.535+217.622L227.535+219.208L226.152+219.208L226.152+223.708C226.152+224.057+226.196+224.275+226.285+224.361C226.374+224.447+226.644+224.49+227.097+224.49C227.165+224.49+227.237+224.488+227.312+224.486C227.388+224.483+227.462+224.479+227.535+224.474L227.535+226.138L226.48+226.177C225.428+226.213+224.709+226.031+224.324+225.63C224.074+225.375+223.949+224.982+223.949+224.45L223.949+219.208L222.762+219.208Z" opacity="1" fill="#555555"/>
<path d="M232.324+219.154C231.808+219.154+231.409+219.315+231.125+219.638C230.841+219.961+230.663+220.398+230.59+220.95L234.051+220.95C234.014+220.362+233.836+219.915+233.515+219.611C233.195+219.306+232.798+219.154+232.324+219.154ZM232.324+217.318C233.032+217.318+233.67+217.45+234.238+217.716C234.806+217.982+235.275+218.401+235.644+218.974C235.978+219.479+236.194+220.065+236.293+220.732C236.35+221.122+236.374+221.685+236.363+222.419L230.535+222.419C230.566+223.273+230.834+223.872+231.34+224.216C231.647+224.43+232.017+224.536+232.449+224.536C232.907+224.536+233.28+224.406+233.566+224.146C233.722+224.005+233.86+223.81+233.98+223.56L236.254+223.56C236.196+224.065+235.933+224.578+235.465+225.099C234.735+225.927+233.715+226.341+232.402+226.341C231.319+226.341+230.363+225.992+229.535+225.294C228.707+224.596+228.293+223.461+228.293+221.888C228.293+220.414+228.666+219.284+229.414+218.497C230.161+217.711+231.131+217.318+232.324+217.318Z" opacity="1" fill="#555555"/>
<path d="M247.379+217.357C247.754+217.357+248.124+217.43+248.488+217.575C248.853+217.721+249.183+217.977+249.48+218.341C249.72+218.638+249.881+219.003+249.965+219.435C250.017+219.721+250.043+220.141+250.043+220.693L250.027+226.06L247.746+226.06L247.746+220.638C247.746+220.315+247.694+220.049+247.59+219.841C247.392+219.445+247.027+219.247+246.496+219.247C245.881+219.247+245.457+219.503+245.222+220.013C245.103+220.284+245.043+220.609+245.043+220.99L245.043+226.06L242.801+226.06L242.801+220.99C242.801+220.484+242.749+220.117+242.644+219.888C242.457+219.477+242.09+219.271+241.543+219.271C240.907+219.271+240.48+219.477+240.262+219.888C240.142+220.122+240.082+220.471+240.082+220.935L240.082+226.06L237.824+226.06L237.824+217.56L239.988+217.56L239.988+218.802C240.264+218.359+240.525+218.044+240.769+217.857C241.202+217.523+241.762+217.357+242.449+217.357C243.1+217.357+243.626+217.5+244.027+217.786C244.35+218.052+244.595+218.393+244.762+218.81C245.053+218.31+245.415+217.943+245.847+217.708C246.306+217.474+246.816+217.357+247.379+217.357Z" opacity="1" fill="#555555"/>
</g>
</g>
</g>
</svg>
